<svg width="208" height="80" viewBox="0 0 208 80" fill="none" xmlns="http://www.w3.org/2000/svg">
<path d="M73.848 41.2347C73.8502 39.9647 73.6009 38.7069 73.1144 37.5338C72.6278 36.3607 71.9137 35.2956 71.0133 34.4L47.5867 10.9733C45.7718 9.15864 43.3105 8.13916 40.744 8.13916C38.1775 8.13916 35.7162 9.15864 33.9013 10.9733L10.0347 34.84C9.13228 35.7363 8.41698 36.8031 7.93036 37.9782C7.44373 39.1533 7.19548 40.4134 7.20001 41.6853V61.6507C7.20354 64.2159 8.22433 66.6751 10.0385 68.4887C11.8527 70.3024 14.3121 71.3225 16.8773 71.3253H37.6773C38.0037 71.2894 38.3054 71.1343 38.5245 70.8898C38.7437 70.6452 38.8648 70.3284 38.8648 70C38.8648 69.6716 38.7437 69.3548 38.5245 69.1103C38.3054 68.8657 38.0037 68.7106 37.6773 68.6747H16.8773C15.0174 68.669 13.2355 67.9268 11.9216 66.6104C10.6077 65.2939 9.86879 63.5106 9.86668 61.6507V41.6853C9.8643 40.7625 10.0448 39.8483 10.3977 38.9956C10.7505 38.1429 11.2689 37.3686 11.9227 36.7173L35.792 12.8507C36.4441 12.1981 37.2183 11.6805 38.0705 11.3273C38.9227 10.9741 39.8362 10.7923 40.7587 10.7923C41.6812 10.7923 42.5946 10.9741 43.4468 11.3273C44.299 11.6805 45.0733 12.1981 45.7253 12.8507L69.1387 36.2667C69.7924 36.9164 70.3107 37.6893 70.6636 38.5407C71.0165 39.3921 71.197 40.305 71.1947 41.2267L71.2133 61.624C71.2144 62.5471 71.0335 63.4613 70.681 64.3144C70.3284 65.1675 69.8112 65.9428 69.1589 66.5959C68.5066 67.249 67.7319 67.7671 66.8792 68.1206C66.0264 68.4741 65.1124 68.656 64.1893 68.656L49.096 68.64C48.8094 68.639 48.5272 68.5686 48.2737 68.4349C48.0201 68.3011 47.8027 68.108 47.64 67.872C47.4916 67.6629 47.3967 67.4206 47.3637 67.1662C47.3307 66.9119 47.3605 66.6534 47.4507 66.4133C47.5082 66.2573 47.5931 66.1129 47.7013 65.9867C48.2347 65.4 49.4533 65.4533 50.76 65.4853C52.6 65.5493 54.888 65.6267 56.4347 63.856C57.6933 62.4133 58.0107 60.184 58.1147 59.4533C58.2013 58.8539 58.2227 58.2468 58.1787 57.6427C58.1384 57.2067 58.1636 56.7672 58.2533 56.3387C58.3724 55.739 58.5838 55.1615 58.88 54.6267C59.1867 54.0293 59.536 53.3493 59.4133 52.344C59.2373 50.9653 58.3307 50.24 57.6 49.6587C57.312 49.4373 57.0386 49.1978 56.7813 48.9413C55.7627 47.8747 55.688 46.6613 55.6427 44.608C55.608 43.1013 55.5707 41.392 54.9627 39.4453C54.9093 39.272 53.6027 35.1787 49.9627 32.32C44.832 28.2853 35.2373 27.5467 28.6853 33.3867C23 38.4533 22.5067 46.0587 23.808 51.0267C25.6107 57.896 32.1387 64.8933 38.1867 63.992C40.8533 63.592 43.7867 61.6613 44.088 59.12C44.3547 57.0187 42.7547 55.488 41.3733 54.136C40.3067 53.0853 39.2773 52.096 39.4427 51.2533C39.5547 50.6987 40.0533 50.1627 40.392 50.0907C40.6907 50.024 41.224 50.392 41.6533 50.6853C42.3173 51.1413 43.3253 51.8293 44.3893 51.2507C45.4533 50.672 45.3653 49.448 45.2853 48.56C45.2241 48.012 45.2063 47.4601 45.232 46.9093C45.3227 45.7261 45.6879 44.5802 46.2987 43.5627C46.4187 43.3581 46.482 43.1252 46.482 42.888C46.482 42.6508 46.4187 42.4179 46.2987 42.2133L44.9067 39.8933L51.216 37.7067C51.7131 38.5032 52.1234 39.3507 52.44 40.2347C52.936 41.8347 52.9733 43.2693 52.9973 44.6667C53.0453 46.7547 53.0933 48.9093 54.864 50.7733C55.2026 51.1168 55.5643 51.4367 55.9467 51.7307C56.5733 52.232 56.7467 52.408 56.784 52.68C56.8053 52.848 56.784 52.9467 56.5173 53.4187C56.1084 54.1703 55.8153 54.9795 55.648 55.8187C55.5134 56.4664 55.473 57.1301 55.528 57.7893C55.5632 58.2189 55.5489 58.6511 55.4853 59.0773C55.28 60.5253 54.9253 61.544 54.4347 62.1093C53.7653 62.8747 52.632 62.8933 50.848 62.832C49.064 62.7707 47.0613 62.704 45.712 64.2267C45.3917 64.5916 45.1405 65.0118 44.9707 65.4667C44.7233 66.1068 44.6379 66.7981 44.7221 67.4792C44.8063 68.1603 45.0575 68.8101 45.4533 69.3707C45.8584 69.9618 46.4011 70.4455 47.0348 70.78C47.6685 71.1145 48.3741 71.2898 49.0907 71.2907L64.184 71.304C65.455 71.3051 66.7136 71.0557 67.8882 70.5701C69.0627 70.0846 70.1301 69.3723 71.0293 68.4741C71.9284 67.5759 72.6418 66.5094 73.1287 65.3354C73.6156 64.1614 73.8663 62.9029 73.8667 61.632L73.848 41.2347ZM42.472 37.9333C42.2865 37.9992 42.1179 38.1053 41.9782 38.244C41.8385 38.3827 41.7313 38.5507 41.6643 38.7358C41.5973 38.9209 41.572 39.1185 41.5904 39.3145C41.6088 39.5105 41.6704 39.7 41.7707 39.8693L43.616 42.9333C43.0213 44.1188 42.6669 45.4103 42.5733 46.7333C42.5424 47.1977 42.5424 47.6636 42.5733 48.128C41.8533 47.6853 40.9173 47.264 39.8213 47.496C38.3973 47.8 37.136 49.1627 36.824 50.736C36.376 52.992 38.112 54.68 39.5067 56.0373C40.5013 57.0053 41.5333 58.0053 41.4347 58.8053C41.312 59.84 39.4987 61.1093 37.776 61.368C33.6347 61.9973 27.976 56.536 26.3547 50.3547C25.2427 46.1093 25.6427 39.6373 30.432 35.368C33.1973 32.9013 36.728 31.8213 40.0853 31.8213C43.2267 31.8213 46.2187 32.768 48.304 34.4053C48.7255 34.7377 49.1229 35.0995 49.4933 35.488L42.472 37.9333Z" fill="white"/>
<path d="M51.864 49.2213C51.864 48.8384 51.7505 48.4641 51.5377 48.1457C51.325 47.8274 51.0226 47.5792 50.6689 47.4327C50.3151 47.2861 49.9259 47.2478 49.5503 47.3225C49.1748 47.3972 48.8298 47.5816 48.559 47.8524C48.2883 48.1231 48.1039 48.4681 48.0292 48.8436C47.9545 49.2192 47.9928 49.6084 48.1394 49.9622C48.2859 50.3159 48.534 50.6183 48.8524 50.831C49.1708 51.0438 49.5451 51.1573 49.928 51.1573C50.4415 51.1573 50.9339 50.9534 51.297 50.5903C51.66 50.2272 51.864 49.7348 51.864 49.2213Z" fill="white"/>
<path d="M103.287 45.8704H94.1086V53.8647H91.0132V35.0228H94.1086V42.9364H103.287V35.0228H106.383V53.8647H103.287V45.8704Z" fill="white"/>
<path d="M116.016 54.2146C114.598 54.2146 113.297 53.8737 112.113 53.1918C110.928 52.5099 109.995 51.5857 109.313 50.4193C108.631 49.235 108.29 47.934 108.29 46.5164C108.29 45.0987 108.631 43.8067 109.313 42.6403C109.995 41.4739 110.928 40.5498 112.113 39.8679C113.297 39.186 114.598 38.845 116.016 38.845C117.433 38.845 118.725 39.186 119.892 39.8679C121.058 40.5498 121.982 41.4739 122.664 42.6403C123.346 43.8067 123.687 45.0987 123.687 46.5164C123.687 47.934 123.346 49.235 122.664 50.4193C121.982 51.5857 121.058 52.5099 119.892 53.1918C118.725 53.8737 117.433 54.2146 116.016 54.2146ZM116.016 51.3883C116.877 51.3883 117.667 51.173 118.384 50.7423C119.102 50.3117 119.667 49.7285 120.08 48.9927C120.493 48.257 120.699 47.4315 120.699 46.5164C120.699 45.6012 120.484 44.7757 120.053 44.04C119.64 43.3043 119.075 42.7301 118.357 42.3173C117.64 41.8867 116.85 41.6713 115.989 41.6713C115.109 41.6713 114.311 41.8867 113.593 42.3173C112.875 42.7301 112.31 43.3043 111.897 44.04C111.485 44.7757 111.278 45.6012 111.278 46.5164C111.278 47.4315 111.485 48.257 111.897 48.9927C112.328 49.7285 112.902 50.3117 113.62 50.7423C114.338 51.173 115.136 51.3883 116.016 51.3883Z" fill="white"/>
<path d="M128.256 54.2146C127.179 54.2146 126.076 54.0262 124.945 53.6494V50.527C126.273 51.1192 127.377 51.4153 128.256 51.4153C128.812 51.4153 129.252 51.2807 129.575 51.0115C129.916 50.7423 130.086 50.3296 130.086 49.7733C130.086 49.3606 129.916 48.9838 129.575 48.6428C129.234 48.3019 128.705 47.8802 127.987 47.3777C127.305 46.9112 126.749 46.4984 126.318 46.1395C125.905 45.7806 125.546 45.341 125.241 44.8206C124.936 44.3002 124.784 43.717 124.784 43.071C124.784 41.6713 125.232 40.6216 126.13 39.9217C127.045 39.2039 128.193 38.845 129.575 38.845C130.383 38.845 131.235 38.9886 132.132 39.2757V42.3442C131.719 42.111 131.289 41.9315 130.84 41.8059C130.392 41.6803 129.97 41.6175 129.575 41.6175C129.019 41.6175 128.57 41.7341 128.229 41.9674C127.888 42.1827 127.718 42.5237 127.718 42.9903C127.718 43.3312 127.87 43.6542 128.175 43.9593C128.498 44.2643 129.001 44.6681 129.683 45.1705C130.383 45.673 130.948 46.1306 131.378 46.5433C131.827 46.9381 132.213 47.4136 132.536 47.9699C132.859 48.5262 133.02 49.1453 133.02 49.8272C133.02 51.2448 132.599 52.3304 131.755 53.0841C130.912 53.8378 129.746 54.2146 128.256 54.2146Z" fill="white"/>
<path d="M139.623 54.1339C137.99 54.1339 136.751 53.6763 135.908 52.7611C135.083 51.828 134.67 50.5629 134.67 48.9658V35.4804H137.631V39.1681H140.645V42.0482H137.631V48.6966C137.631 50.3476 138.384 51.173 139.892 51.173H140.645V54.1339H139.623Z" fill="white"/>
<path d="M149.136 54.2146C147.718 54.2146 146.417 53.8737 145.233 53.1918C144.049 52.5099 143.116 51.5857 142.434 50.4193C141.752 49.235 141.411 47.934 141.411 46.5164C141.411 45.0987 141.752 43.8067 142.434 42.6403C143.116 41.456 144.049 40.5229 145.233 39.841C146.417 39.1591 147.718 38.8181 149.136 38.8181C150.5 38.8181 151.747 39.1591 152.878 39.841C154.008 40.5229 154.896 41.456 155.542 42.6403C156.206 43.8067 156.538 45.0987 156.538 46.5164C156.538 46.965 156.484 47.4226 156.377 47.8891H144.587C144.856 48.9299 145.404 49.7733 146.229 50.4193C147.072 51.0653 148.041 51.3883 149.136 51.3883C149.908 51.3883 150.625 51.1909 151.289 50.7962C151.971 50.4014 152.456 49.881 152.743 49.235H156.081C155.668 50.7244 154.825 51.9267 153.55 52.8419C152.276 53.757 150.805 54.2146 149.136 54.2146ZM153.389 45.1974C153.138 44.1387 152.617 43.2863 151.828 42.6403C151.056 41.9764 150.159 41.6444 149.136 41.6444C148.024 41.6444 147.046 41.9764 146.202 42.6403C145.377 43.2863 144.829 44.1387 144.56 45.1974H153.389Z" fill="white"/>
<path d="M158.518 34H161.479V53.8647H158.518V34Z" fill="white"/>
<path d="M164.246 35.0228H169.872C170.931 35.0228 171.864 35.2472 172.671 35.6958C173.497 36.1264 174.134 36.7276 174.582 37.4992C175.049 38.2529 175.282 39.0963 175.282 40.0294C175.282 40.9446 175.067 41.761 174.636 42.4788C174.205 43.1787 173.622 43.717 172.886 44.0939C173.927 44.3271 174.762 44.8565 175.39 45.6819C176.018 46.4895 176.332 47.4764 176.332 48.6428C176.332 49.6298 176.099 50.527 175.632 51.3345C175.183 52.1241 174.546 52.7432 173.721 53.1918C172.913 53.6404 171.989 53.8647 170.948 53.8647H164.246V35.0228ZM170.679 50.9308C171.415 50.9308 172.007 50.6975 172.456 50.2309C172.922 49.7464 173.156 49.1273 173.156 48.3736C173.156 47.602 172.913 46.9829 172.429 46.5164C171.944 46.0319 171.325 45.7896 170.572 45.7896H167.342V50.9308H170.679ZM169.522 42.9095C170.276 42.9095 170.895 42.6762 171.379 42.2097C171.864 41.7431 172.106 41.142 172.106 40.4062C172.106 39.6884 171.864 39.1052 171.379 38.6566C170.895 38.1901 170.276 37.9568 169.522 37.9568H167.342V42.9095H169.522Z" fill="white"/>
<path d="M185.332 54.2146C183.914 54.2146 182.613 53.8737 181.429 53.1918C180.245 52.5099 179.312 51.5857 178.63 50.4193C177.948 49.235 177.607 47.934 177.607 46.5164C177.607 45.0987 177.948 43.8067 178.63 42.6403C179.312 41.4739 180.245 40.5498 181.429 39.8679C182.613 39.186 183.914 38.845 185.332 38.845C186.75 38.845 188.042 39.186 189.208 39.8679C190.374 40.5498 191.299 41.4739 191.98 42.6403C192.662 43.8067 193.003 45.0987 193.003 46.5164C193.003 47.934 192.662 49.235 191.98 50.4193C191.299 51.5857 190.374 52.5099 189.208 53.1918C188.042 53.8737 186.75 54.2146 185.332 54.2146ZM185.332 51.3883C186.193 51.3883 186.983 51.173 187.701 50.7423C188.418 50.3117 188.984 49.7285 189.396 48.9927C189.809 48.257 190.016 47.4315 190.016 46.5164C190.016 45.6012 189.8 44.7757 189.37 44.04C188.957 43.3043 188.392 42.7301 187.674 42.3173C186.956 41.8867 186.166 41.6713 185.305 41.6713C184.426 41.6713 183.627 41.8867 182.909 42.3173C182.192 42.7301 181.626 43.3043 181.214 44.04C180.801 44.7757 180.595 45.6012 180.595 46.5164C180.595 47.4315 180.801 48.257 181.214 48.9927C181.644 49.7285 182.219 50.3117 182.936 50.7423C183.654 51.173 184.453 51.3883 185.332 51.3883Z" fill="white"/>
<path d="M198.764 53.8647L192.869 39.1681H195.991L200.379 50.4193L204.712 39.1681H207.862L200.029 58.4675H196.799L198.764 53.8647Z" fill="white"/>
<path d="M94.1291 64.6119L90.1643 59.1886H91.3764L94.8481 63.8929L98.2993 59.1886H99.5113L95.5466 64.6119L99.6962 70.2407H98.4637L94.8481 65.3309L91.212 70.2407H90L94.1291 64.6119Z" fill="white"/>
<path d="M105.728 70.4461C104.673 70.4461 103.708 70.1927 102.831 69.686C101.955 69.1793 101.263 68.4877 100.756 67.6112C100.25 66.7347 99.9963 65.7692 99.9963 64.7146C99.9963 63.6601 100.25 62.6946 100.756 61.8181C101.263 60.9416 101.955 60.25 102.831 59.7433C103.708 59.2365 104.673 58.9832 105.728 58.9832C106.44 58.9832 107.145 59.1133 107.844 59.3735V60.5444C107.186 60.2021 106.481 60.0309 105.728 60.0309C104.865 60.0309 104.078 60.2363 103.365 60.6471C102.667 61.058 102.112 61.6264 101.701 62.3522C101.291 63.0644 101.085 63.8518 101.085 64.7146C101.085 65.5774 101.291 66.3718 101.701 67.0976C102.112 67.8098 102.667 68.3713 103.365 68.7821C104.078 69.193 104.865 69.3984 105.728 69.3984C106.481 69.3984 107.186 69.2272 107.844 68.8848V70.0352C107.173 70.3091 106.467 70.4461 105.728 70.4461Z" fill="white"/>
<path d="M109.948 55.08H111.037V61.1813C111.393 60.5102 111.899 59.9761 112.557 59.5789C113.228 59.1818 113.974 58.9832 114.796 58.9832C115.645 58.9832 116.392 59.1749 117.035 59.5584C117.693 59.9418 118.192 60.4828 118.535 61.1813C118.891 61.866 119.069 62.6535 119.069 63.5437V70.2407H117.96V63.5437C117.96 62.5028 117.658 61.6606 117.056 61.0169C116.467 60.3595 115.659 60.0309 114.632 60.0309C113.947 60.0309 113.331 60.1815 112.783 60.4828C112.235 60.7841 111.804 61.195 111.489 61.7154C111.187 62.2358 111.037 62.8178 111.037 63.4615V70.2407H109.948V55.08Z" fill="white"/>
<path d="M131.154 67.8577C130.661 68.652 130.004 69.282 129.182 69.7476C128.36 70.2133 127.45 70.4461 126.45 70.4461C125.395 70.4461 124.437 70.1927 123.574 69.686C122.711 69.1793 122.026 68.4877 121.519 67.6112C121.026 66.7347 120.78 65.7692 120.78 64.7146C120.78 63.6601 121.026 62.6946 121.519 61.8181C122.026 60.9416 122.711 60.25 123.574 59.7433C124.437 59.2365 125.395 58.9832 126.45 58.9832C127.45 58.9832 128.36 59.216 129.182 59.6816C130.004 60.1473 130.661 60.7773 131.154 61.5716V59.1886H132.243V70.2407H131.154V67.8577ZM126.511 69.3984C127.374 69.3984 128.155 69.193 128.853 68.7821C129.565 68.3713 130.127 67.8098 130.538 67.0976C130.949 66.3854 131.154 65.5911 131.154 64.7146C131.154 63.8518 130.949 63.0644 130.538 62.3522C130.127 61.6264 129.565 61.058 128.853 60.6471C128.155 60.2363 127.374 60.0309 126.511 60.0309C125.649 60.0309 124.861 60.2363 124.149 60.6471C123.451 61.058 122.896 61.6264 122.485 62.3522C122.074 63.0644 121.869 63.8518 121.869 64.7146C121.869 65.5911 122.074 66.3854 122.485 67.0976C122.896 67.8098 123.451 68.3713 124.149 68.7821C124.861 69.193 125.649 69.3984 126.511 69.3984Z" fill="white"/>
<path d="M143.155 63.5437C143.155 62.5028 142.854 61.6606 142.251 61.0169C141.649 60.3595 140.848 60.0309 139.848 60.0309C139.177 60.0309 138.567 60.1815 138.02 60.4828C137.485 60.7841 137.061 61.195 136.746 61.7154C136.445 62.2358 136.294 62.8178 136.294 63.4615V70.2407H135.205V59.1886H136.294V61.1607C136.636 60.4897 137.136 59.9624 137.794 59.5789C138.465 59.1818 139.204 58.9832 140.012 58.9832C140.861 58.9832 141.601 59.1749 142.231 59.5584C142.875 59.9418 143.368 60.4828 143.71 61.1813C144.052 61.866 144.223 62.6535 144.223 63.5437V70.2407H143.155V63.5437Z" fill="white"/>
<path d="M151.313 68.1658C150.669 68.1658 150.046 68.0357 149.443 67.7755L147.574 70.4255H152.587C153.71 70.4255 154.579 70.7405 155.195 71.3705C155.825 72.0142 156.14 72.8907 156.14 74H155.052C155.052 73.2194 154.819 72.6031 154.353 72.1511C153.901 71.7129 153.244 71.4938 152.381 71.4938H146.259V70.4255L148.498 67.2209C147.964 66.7963 147.54 66.269 147.225 65.6391C146.924 65.0091 146.773 64.3175 146.773 63.5642C146.773 62.7151 146.971 61.9413 147.369 61.2429C147.779 60.5444 148.334 59.9966 149.033 59.5995C149.731 59.1886 150.498 58.9832 151.333 58.9832C152.224 58.9832 153.045 59.216 153.799 59.6816L155.175 57.8533L156.058 58.4901L154.661 60.3801C155.059 60.8046 155.367 61.2908 155.586 61.8386C155.805 62.3727 155.914 62.9479 155.914 63.5642C155.914 64.3996 155.709 65.1734 155.298 65.8856C154.887 66.584 154.326 67.1387 153.614 67.5495C152.915 67.9604 152.148 68.1658 151.313 68.1658ZM151.333 67.1181C151.977 67.1181 152.566 66.9606 153.1 66.6457C153.634 66.317 154.059 65.8787 154.374 65.3309C154.689 64.7831 154.846 64.1942 154.846 63.5642C154.846 62.9206 154.689 62.3248 154.374 61.777C154.059 61.2292 153.634 60.7978 153.1 60.4828C152.566 60.1678 151.977 60.0103 151.333 60.0103C150.69 60.0103 150.101 60.1678 149.567 60.4828C149.033 60.7978 148.608 61.2292 148.293 61.777C147.992 62.3248 147.841 62.9206 147.841 63.5642C147.841 64.2353 147.992 64.8447 148.293 65.3925C148.608 65.9267 149.033 66.3512 149.567 66.6662C150.101 66.9675 150.69 67.1181 151.333 67.1181Z" fill="white"/>
<path d="M163.103 70.4461C162.049 70.4461 161.083 70.1927 160.207 69.686C159.33 69.1793 158.639 68.4877 158.132 67.6112C157.625 66.7347 157.372 65.7692 157.372 64.7146C157.372 63.6601 157.625 62.6946 158.132 61.8181C158.639 60.9416 159.33 60.25 160.207 59.7433C161.083 59.2365 162.049 58.9832 163.103 58.9832C164.144 58.9832 165.096 59.2365 165.959 59.7433C166.822 60.25 167.5 60.9416 167.993 61.8181C168.499 62.6946 168.753 63.6601 168.753 64.7146C168.753 64.9338 168.732 65.1049 168.691 65.2282H158.481C158.563 66.0225 158.817 66.7347 159.241 67.3647C159.666 67.9946 160.214 68.4945 160.885 68.8643C161.556 69.2204 162.295 69.3984 163.103 69.3984C164.021 69.3984 164.849 69.1587 165.589 68.6794C166.329 68.2001 166.856 67.5632 167.171 66.7689H168.383C168.027 67.8645 167.363 68.7547 166.39 69.4395C165.432 70.1106 164.336 70.4461 163.103 70.4461ZM167.643 64.2216C167.575 63.4273 167.328 62.7151 166.904 62.0851C166.493 61.4415 165.952 60.9416 165.281 60.5855C164.624 60.2157 163.898 60.0309 163.103 60.0309C162.295 60.0309 161.556 60.2157 160.885 60.5855C160.214 60.9416 159.666 61.4415 159.241 62.0851C158.817 62.7151 158.563 63.4273 158.481 64.2216H167.643Z" fill="white"/>
</svg>
