<svg width="250" height="251" viewBox="0 0 250 251" fill="none" xmlns="http://www.w3.org/2000/svg">
<path d="M249.93 131.156C249.938 126.394 249.003 121.677 247.179 117.278C245.354 112.878 242.677 108.884 239.3 105.526L151.45 17.6759C144.644 10.8708 135.414 7.04773 125.79 7.04773C116.166 7.04773 106.936 10.8708 100.13 17.6759L10.63 107.176C7.24598 110.537 4.56363 114.537 2.73878 118.944C0.91394 123.351 -0.0170234 128.076 -1.52365e-05 132.846V207.716C0.0132183 217.336 3.84119 226.557 10.6443 233.359C17.4474 240.16 26.6703 243.985 36.29 243.996H114.29C115.514 243.861 116.645 243.28 117.467 242.362C118.289 241.445 118.743 240.257 118.743 239.026C118.743 237.795 118.289 236.606 117.467 235.689C116.645 234.772 115.514 234.191 114.29 234.056H36.29C29.3153 234.035 22.633 231.251 17.7059 226.315C12.7787 221.378 10.0079 214.691 9.99998 207.716V132.846C9.99106 129.385 10.6678 125.957 11.9911 122.76C13.3145 119.562 15.2582 116.658 17.71 114.216L107.22 24.7159C109.665 22.2689 112.569 20.3277 115.764 19.0033C118.96 17.6788 122.386 16.9972 125.845 16.9972C129.304 16.9972 132.73 17.6788 135.926 19.0033C139.121 20.3277 142.025 22.2689 144.47 24.7159L232.27 112.526C234.721 114.962 236.665 117.861 237.988 121.053C239.312 124.246 239.989 127.67 239.98 131.126L240.05 207.616C240.054 211.077 239.376 214.506 238.054 217.705C236.732 220.904 234.792 223.811 232.346 226.261C229.9 228.71 226.994 230.652 223.797 231.978C220.599 233.304 217.172 233.986 213.71 233.986L157.11 233.926C156.035 233.922 154.977 233.658 154.026 233.157C153.075 232.655 152.26 231.931 151.65 231.046C151.093 230.262 150.738 229.353 150.614 228.399C150.49 227.446 150.602 226.476 150.94 225.576C151.156 224.991 151.474 224.449 151.88 223.976C153.88 221.776 158.45 221.976 163.35 222.096C170.25 222.336 178.83 222.626 184.63 215.986C189.35 210.576 190.54 202.216 190.93 199.476C191.255 197.228 191.335 194.951 191.17 192.686C191.019 191.051 191.113 189.403 191.45 187.796C191.896 185.547 192.689 183.381 193.8 181.376C194.95 179.136 196.26 176.586 195.8 172.816C195.14 167.646 191.74 164.926 189 162.746C187.92 161.916 186.895 161.017 185.93 160.056C182.11 156.056 181.83 151.506 181.66 143.806C181.53 138.156 181.39 131.746 179.11 124.446C178.91 123.796 174.01 108.446 160.36 97.7259C141.12 82.5959 105.14 79.8259 80.57 101.726C59.25 120.726 57.4 149.246 62.28 167.876C69.04 193.636 93.52 219.876 116.2 216.496C126.2 214.996 137.2 207.756 138.33 198.226C139.33 190.346 133.33 184.606 128.15 179.536C124.15 175.596 120.29 171.886 120.91 168.726C121.33 166.646 123.2 164.636 124.47 164.366C125.59 164.116 127.59 165.496 129.2 166.596C131.69 168.306 135.47 170.886 139.46 168.716C143.45 166.546 143.12 161.956 142.82 158.626C142.59 156.571 142.523 154.501 142.62 152.436C142.96 147.999 144.33 143.702 146.62 139.886C147.07 139.119 147.307 138.245 147.307 137.356C147.307 136.466 147.07 135.593 146.62 134.826L141.4 126.126L165.06 117.926C166.924 120.913 168.463 124.091 169.65 127.406C171.51 133.406 171.65 138.786 171.74 144.026C171.92 151.856 172.1 159.936 178.74 166.926C180.01 168.214 181.366 169.413 182.8 170.516C185.15 172.396 185.8 173.056 185.94 174.076C186.02 174.706 185.94 175.076 184.94 176.846C183.406 179.665 182.307 182.699 181.68 185.846C181.175 188.275 181.024 190.764 181.23 193.236C181.362 194.847 181.308 196.467 181.07 198.066C180.3 203.496 178.97 207.316 177.13 209.436C174.62 212.306 170.37 212.376 163.68 212.146C156.99 211.916 149.48 211.666 144.42 217.376C143.219 218.744 142.277 220.32 141.64 222.026C140.712 224.426 140.392 227.019 140.708 229.573C141.024 232.127 141.966 234.564 143.45 236.666C144.969 238.883 147.004 240.696 149.381 241.951C151.757 243.205 154.403 243.863 157.09 243.866L213.69 243.916C218.456 243.92 223.176 242.985 227.581 241.164C231.985 239.343 235.988 236.672 239.36 233.304C242.732 229.936 245.407 225.936 247.233 221.534C249.058 217.131 249.999 212.412 250 207.646L249.93 131.156ZM132.27 118.776C131.574 119.023 130.942 119.421 130.418 119.941C129.895 120.461 129.493 121.091 129.241 121.785C128.99 122.479 128.895 123.22 128.964 123.955C129.033 124.69 129.264 125.401 129.64 126.036L136.56 137.526C134.33 141.972 133.001 146.815 132.65 151.776C132.534 153.517 132.534 155.264 132.65 157.006C129.95 155.346 126.44 153.766 122.33 154.636C116.99 155.776 112.26 160.886 111.09 166.786C109.41 175.246 115.92 181.576 121.15 186.666C124.88 190.296 128.75 194.046 128.38 197.046C127.92 200.926 121.12 205.686 114.66 206.656C99.13 209.016 77.91 188.536 71.83 165.356C67.66 149.436 69.16 125.166 87.12 109.156C97.49 99.9059 110.73 95.8559 123.32 95.8559C135.1 95.8559 146.32 99.4059 154.14 105.546C155.721 106.792 157.211 108.149 158.6 109.606L132.27 118.776Z" fill="#A67C52"/>
<path d="M167.49 163.066C167.49 161.551 167.064 160.07 166.266 158.81C165.469 157.551 164.335 156.569 163.008 155.989C161.682 155.409 160.222 155.258 158.814 155.553C157.405 155.849 156.112 156.578 155.096 157.65C154.081 158.721 153.39 160.086 153.109 161.572C152.829 163.057 152.973 164.598 153.523 165.997C154.072 167.397 155.003 168.593 156.197 169.435C157.39 170.277 158.794 170.726 160.23 170.726C162.155 170.726 164.002 169.919 165.364 168.482C166.725 167.046 167.49 165.097 167.49 163.066Z" fill="#A67C52"/>
</svg>
